<?xml version="1.0" encoding="UTF-8" standalone="no"?>
<!-- Created with Inkscape (http://www.inkscape.org/) -->

<svg
   xmlns:dc="http://purl.org/dc/elements/1.1/"
   xmlns:cc="http://creativecommons.org/ns#"
   xmlns:rdf="http://www.w3.org/1999/02/22-rdf-syntax-ns#"
   xmlns:svg="http://www.w3.org/2000/svg"
   xmlns="http://www.w3.org/2000/svg"
   xmlns:sodipodi="http://sodipodi.sourceforge.net/DTD/sodipodi-0.dtd"
   xmlns:inkscape="http://www.inkscape.org/namespaces/inkscape"
   width="177.16534"
   height="177.16534"
   id="svg2"
   version="1.1"
   inkscape:version="0.48.3.1 r9886"
   sodipodi:docname="Perl_2014_conference_gadget.svg">
  <defs
     id="defs4" />
  <sodipodi:namedview
     id="base"
     pagecolor="#ffffff"
     bordercolor="#666666"
     borderopacity="1.0"
     inkscape:pageopacity="0.0"
     inkscape:pageshadow="2"
     inkscape:zoom="2.79"
     inkscape:cx="63.788607"
     inkscape:cy="95.612451"
     inkscape:document-units="px"
     inkscape:current-layer="layer1"
     showgrid="false"
     inkscape:window-width="1440"
     inkscape:window-height="826"
     inkscape:window-x="0"
     inkscape:window-y="24"
     inkscape:window-maximized="1"
     units="mm" />
  <metadata
     id="metadata7">
    <rdf:RDF>
      <cc:Work
         rdf:about="">
        <dc:format>image/svg+xml</dc:format>
        <dc:type
           rdf:resource="http://purl.org/dc/dcmitype/StillImage" />
        <dc:title></dc:title>
      </cc:Work>
    </rdf:RDF>
  </metadata>
  <g
     inkscape:groupmode="layer"
     id="layer2"
     inkscape:label="Warstwa"
     style="display:none">
    <rect
       transform="translate(0,-875.19684)"
       style="opacity:0.25855515;fill:#cdaa8a;fill-opacity:1;stroke:#000000;stroke-width:0.35332108;stroke-miterlimit:0.1;stroke-opacity:1;stroke-dasharray:none;display:inline"
       id="rect2985"
       width="93.162354"
       height="93.162354"
       x="42.001495"
       y="888.1134"
       rx="0"
       ry="0" />
  </g>
  <g
     inkscape:label="Layer 1"
     inkscape:groupmode="layer"
     id="layer1"
     transform="translate(0,-875.19684)"
     style="display:inline">
    <path
       style="fill:none;stroke:#000000;stroke-width:0.35433072;stroke-linecap:butt;stroke-linejoin:miter;stroke-miterlimit:4;stroke-opacity:1;stroke-dasharray:none"
       d="m 88.46875,0.84375 c -3.672848,0 -9.828632,0.77155 -16.3125,7.5 -2.637318,2.7368 -6.676149,9.37178 -15.09375,9.375 l 0.625,0 C 49.015413,18.022484 43.427786,25.248397 42,33.9375 L 32.03125,94.625 c -1.45875,8.87752 7.253421,16.25 16.25,16.25 l 3.09375,0 0,6.96875 74.4375,0 0,-6.96875 3.09375,0 c 8.99657,0 17.67749,-7.37248 16.21875,-16.25 L 135.15625,33.9375 C 133.72846,25.248397 128.17082,18.022484 119.5,17.71875 119.31297,17.71446 119.12146,17.701435 118.9375,17.6875 111.30448,17.109313 107.51292,10.951462 105,8.34375 c -6.48386,-6.72845 -12.608402,-7.5 -16.28125,-7.5 l -0.25,0 z M 62.1875,23.75 l 52.78125,0 c 7.82518,0 12.85619,6.40337 14.125,14.125 l 8.6875,52.78125 c 1.26881,7.72163 -6.29982,14.125 -14.125,14.125 l -70.125,0 c -7.825177,0 -15.393811,-6.40337 -14.125,-14.125 L 48.0625,37.875 C 49.331313,30.15337 54.362323,23.75 62.1875,23.75 z"
       transform="translate(0,875.19684)"
       id="path3873-1"
       inkscape:connector-curvature="0" />
    <path
       id="rect2985-3-4-4"
       transform="scale(1,-1)"
       style="opacity:0.95999995;fill:#d45500;stroke:#000000;stroke-width:0.35433072;stroke-miterlimit:0.1;stroke-opacity:1;stroke-dasharray:none;display:inline"
       d="m 4.2845049,-1037.0105 168.5963451,0 0,41.33784 -168.5963451,0 z m -3.77108468,-3.6755 176.13849978,0 0,48.68875 -176.13849978,0 z"
       inkscape:connector-curvature="0" />
    <path
       id="rect3919-3-3-4"
       style="fill:none;stroke:#555555;stroke-width:0.35433072;stroke-miterlimit:0.1;stroke-opacity:1"
       d="m 93.85984,1000.0944 32.21989,0 0,32.2199 -32.21989,0 z m -42.774227,0 32.219895,0 0,32.2199 -32.219895,0 z m 83.548447,0 32.2199,0 0,32.2199 -32.2199,0 z m -124.32267,0 32.219894,0 0,32.2199 -32.219894,0 z"
       inkscape:connector-curvature="0" />
    <path
       sodipodi:type="arc"
       style="opacity:0.95999995;fill:none;stroke:#555555;stroke-width:0.59065205;stroke-miterlimit:0.1;stroke-opacity:1;stroke-dasharray:none"
       id="path3985"
       sodipodi:cx="-53.520824"
       sodipodi:cy="37.008808"
       sodipodi:rx="6.9809771"
       sodipodi:ry="6.9809771"
       d="m -46.539847,37.008808 a 6.9809771,6.9809771 0 1 1 -13.961954,0 6.9809771,6.9809771 0 1 1 13.961954,0 z"
       transform="matrix(0.59989752,0,0,0.59989752,120.68968,861.61739)" />
    <text
       xml:space="preserve"
       style="font-size:37.4742775px;font-style:normal;font-weight:normal;line-height:125%;letter-spacing:0px;word-spacing:0px;fill:#000000;fill-opacity:1;stroke:none;font-family:Bitstream Vera Sans"
       x="11.909552"
       y="1180.7845"
       id="text4082"
       sodipodi:linespacing="125%"
       transform="scale(1.1486339,0.87059941)"><tspan
         sodipodi:role="line"
         id="tspan4084"
         x="11.909552"
         y="1180.7845">P E R L</tspan></text>
  </g>
  <g
     inkscape:groupmode="layer"
     id="layer3"
     inkscape:label="Warstwa2"
     style="display:none">
    <path
       style="fill:none;stroke:#000000;stroke-width:0.35433072;stroke-miterlimit:4;stroke-opacity:1;stroke-dasharray:none;display:inline"
       d="m 58.240803,17.69818 60.683737,0 c 8.99658,0 14.78056,7.36178 16.23931,16.239309 l 9.97151,60.68373 c 1.45874,8.877531 -7.24274,16.239311 -16.23931,16.239311 l -80.626753,0 c -8.996579,0 -17.698059,-7.36178 -16.239309,-16.239311 l 9.971506,-60.68373 C 43.460242,25.05996 49.244225,17.69818 58.240803,17.69818 z"
       id="rect2985-8-4"
       inkscape:connector-curvature="0"
       sodipodi:nodetypes="sssssssss" />
  </g>
</svg>
